<?xml version="1.0" encoding="utf-8"?>
<!-- Generator: Adobe Illustrator 26.0.3, SVG Export Plug-In . SVG Version: 6.00 Build 0)  -->
<svg version="1.1" id="Layer_1" xmlns="http://www.w3.org/2000/svg" xmlns:xlink="http://www.w3.org/1999/xlink" x="0px" y="0px"
	 viewBox="0 0 640 640" style="enable-background:new 0 0 640 640;" xml:space="preserve">
<style type="text/css">
	.st0{fill:#19193D;}
	.st1{fill:#B2B2B2;}
	.st2{fill:#CCCCCC;}
</style>
<rect class="st0" width="640" height="640"/>
<path class="st1" d="M485.8,321.1c-8.1-8.7-18.8-14.5-30.6-16.4c-1-20.2-9.7-39.3-24.3-53.4c-15-14.6-35.1-22.8-56.1-22.8
	c-27.3,0.1-52.7,14-67.6,36.8c-3-0.7-6.1-1-9.2-1c-23.1,0.1-42.1,18.1-43.3,41.1c-10.9,2.6-20.7,8.6-28,17.1c-8.4,9.7-13,22.1-13,35
	c0,29.6,24,53.5,53.6,53.6h179.1c29.6,0,53.5-24,53.6-53.6C500,344,495,331,485.8,321.1z"/>
<path class="st2" d="M362.8,411.4H183.7c-24.1,0-43.6-19.5-43.6-43.6c-0.1-21.5,15.5-39.8,36.8-43.1c2.5-0.4,4.4-2.7,4.2-5.2
	c0-0.5,0-1,0-1.6c0-18.4,15-33.4,33.4-33.4c3.4,0,6.8,0.5,10,1.5c2.2,0.7,4.6-0.2,5.8-2.2c12.7-21.7,35.9-35,61-35.1
	c38.9,0,70.5,31.6,70.5,70.5v0.2c0,2.6,2,4.8,4.6,5c22.6,1.9,40.1,20.8,40.2,43.5C406.5,391.9,386.9,411.4,362.8,411.4z"/>
</svg>
