<?xml version="1.0" encoding="utf-8"?>
<!-- Generator: Adobe Illustrator 26.0.3, SVG Export Plug-In . SVG Version: 6.00 Build 0)  -->
<svg version="1.1" id="Layer_1" xmlns="http://www.w3.org/2000/svg" xmlns:xlink="http://www.w3.org/1999/xlink" x="0px" y="0px"
	 viewBox="0 0 640 640" style="enable-background:new 0 0 640 640;" xml:space="preserve">
<style type="text/css">
	.st0{fill:#4257E2;}
	.st1{fill:#E6E6E6;}
	.st2{fill:#F2F2F2;}
	.st3{fill:#D1D1D1;}
</style>
<rect x="0.5" y="0.4" class="st0" width="640" height="640"/>
<g>
	<g>
		<path class="st1" d="M485.7,289.1c-8.1-8.7-18.8-14.5-30.6-16.4c-1-20.2-9.7-39.3-24.3-53.4c-15-14.6-35.1-22.8-56.1-22.8
			c-27.3,0.1-52.7,13.9-67.6,36.8c-3-0.7-6.1-1-9.2-1c-23.1,0.1-42.1,18.1-43.3,41.1c-10.9,2.6-20.7,8.6-28,17.1
			c-8.4,9.7-13,22.1-13,35c0,29.6,24,53.5,53.6,53.6h179.1c29.6,0,53.5-24,53.6-53.6C500,312.1,494.9,299,485.7,289.1z"/>
		<path class="st2" d="M362.7,379.5H183.6c-24.1,0-43.6-19.5-43.6-43.6c-0.1-21.5,15.5-39.8,36.8-43.1c2.5-0.4,4.4-2.7,4.2-5.2
			c0-0.5,0-1,0-1.6c0-18.4,15-33.4,33.4-33.4c3.4,0,6.8,0.5,10,1.5c2.2,0.7,4.6-0.2,5.8-2.2c12.7-21.7,35.9-35.1,61-35.1
			c38.9,0,70.5,31.6,70.5,70.5v0.2c0,2.6,2,4.8,4.6,5c22.6,1.9,40.1,20.8,40.2,43.5C406.4,360,386.8,379.5,362.7,379.5z"/>
	</g>
	<g>
		<path class="st3" d="M457.5,395.6h-315c-1.4,0-2.5-1.1-2.5-2.5l0,0c0-1.4,1.1-2.5,2.5-2.5h315c1.4,0,2.5,1.1,2.5,2.5l0,0
			C460,394.5,458.9,395.6,457.5,395.6z"/>
		<path class="st3" d="M497.5,406.6h-315c-1.4,0-2.5-1.1-2.5-2.5l0,0c0-1.4,1.1-2.5,2.5-2.5h315c1.4,0,2.5,1.1,2.5,2.5l0,0
			C500,405.5,498.9,406.6,497.5,406.6z"/>
		<path class="st3" d="M457.5,417.6h-315c-1.4,0-2.5-1.1-2.5-2.5l0,0c0-1.4,1.1-2.5,2.5-2.5h315c1.4,0,2.5,1.1,2.5,2.5l0,0
			C460,416.5,458.9,417.6,457.5,417.6z"/>
		<path class="st3" d="M497.5,428.6h-315c-1.4,0-2.5-1.1-2.5-2.5l0,0c0-1.4,1.1-2.5,2.5-2.5h315c1.4,0,2.5,1.1,2.5,2.5l0,0
			C500,427.5,498.9,428.6,497.5,428.6z"/>
		<path class="st3" d="M457.5,439.6h-315c-1.4,0-2.5-1.1-2.5-2.5l0,0c0-1.4,1.1-2.5,2.5-2.5h315c1.4,0,2.5,1.1,2.5,2.5l0,0
			C460,438.5,458.9,439.6,457.5,439.6z"/>
	</g>
</g>
</svg>
