<?xml version="1.0" encoding="utf-8"?>
<!-- Generator: Adobe Illustrator 26.0.3, SVG Export Plug-In . SVG Version: 6.00 Build 0)  -->
<svg version="1.1" id="Layer_1" xmlns="http://www.w3.org/2000/svg" xmlns:xlink="http://www.w3.org/1999/xlink" x="0px" y="0px"
	 viewBox="0 0 640 640" style="enable-background:new 0 0 640 640;" xml:space="preserve">
<style type="text/css">
	.st0{fill:#19193D;}
	.st1{fill:#D1D1D1;}
	.st2{fill:#B2B2B2;}
	.st3{fill:#CCCCCC;}
</style>
<rect x="0.5" y="0.4" class="st0" width="640" height="640"/>
<g>
	<g>
		<path class="st1" d="M457.5,395.6h-315c-1.4,0-2.5-1.1-2.5-2.5l0,0c0-1.4,1.1-2.5,2.5-2.5h315c1.4,0,2.5,1.1,2.5,2.5l0,0
			C460,394.5,458.9,395.6,457.5,395.6z"/>
		<path class="st1" d="M497.5,406.6h-315c-1.4,0-2.5-1.1-2.5-2.5l0,0c0-1.4,1.1-2.5,2.5-2.5h315c1.4,0,2.5,1.1,2.5,2.5l0,0
			C500,405.5,498.9,406.6,497.5,406.6z"/>
		<path class="st1" d="M457.5,417.6h-315c-1.4,0-2.5-1.1-2.5-2.5l0,0c0-1.4,1.1-2.5,2.5-2.5h315c1.4,0,2.5,1.1,2.5,2.5l0,0
			C460,416.5,458.9,417.6,457.5,417.6z"/>
		<path class="st1" d="M497.5,428.6h-315c-1.4,0-2.5-1.1-2.5-2.5l0,0c0-1.4,1.1-2.5,2.5-2.5h315c1.4,0,2.5,1.1,2.5,2.5l0,0
			C500,427.5,498.9,428.6,497.5,428.6z"/>
		<path class="st1" d="M457.5,439.6h-315c-1.4,0-2.5-1.1-2.5-2.5l0,0c0-1.4,1.1-2.5,2.5-2.5h315c1.4,0,2.5,1.1,2.5,2.5l0,0
			C460,438.5,458.9,439.6,457.5,439.6z"/>
	</g>
	<g>
		<path class="st2" d="M485.7,289c-8.1-8.7-18.9-14.5-30.6-16.4c-2.3-42.7-37.6-76.2-80.4-76.2c-27.3,0.1-52.7,14-67.6,36.8
			c-3-0.7-6.1-1-9.2-1c-23.1,0-42.1,18.1-43.3,41.1c-28.8,7-46.5,35.9-39.5,64.7c5.8,24.1,27.4,41,52.1,41h179.1
			c29.6,0,53.6-24,53.6-53.6C500,311.9,494.9,298.9,485.7,289z"/>
		<path class="st3" d="M362.7,379.3H183.6c-24.1,0-43.6-19.6-43.6-43.7c0-21.4,15.6-39.7,36.8-43c2.5-0.4,4.3-2.6,4.2-5.2v-1.6
			c0-18.5,15.1-33.4,33.6-33.4c3.3,0,6.6,0.5,9.8,1.5c2.2,0.7,4.6-0.2,5.8-2.2c19.6-33.7,62.7-45.1,96.4-25.6
			c21.7,12.6,35.1,35.8,35.1,61v0.2c0,2.6,2,4.8,4.6,5c24,1.9,41.9,22.9,39.9,46.9C404.5,361.9,385.5,379.4,362.7,379.3L362.7,379.3
			z"/>
	</g>
</g>
</svg>
