<?xml version="1.0" encoding="utf-8"?>
<!-- Generator: Adobe Illustrator 26.0.3, SVG Export Plug-In . SVG Version: 6.00 Build 0)  -->
<svg version="1.1" id="Layer_1" xmlns="http://www.w3.org/2000/svg" xmlns:xlink="http://www.w3.org/1999/xlink" x="0px" y="0px"
	 viewBox="0 0 640 640" style="enable-background:new 0 0 640 640;" xml:space="preserve">
<style type="text/css">
	.st0{fill:#19193D;}
	.st1{fill:#B2B2B2;}
	.st2{fill:#CCCCCC;}
	.st3{fill:#9AC6CE;}
</style>
<rect x="0.5" y="0.4" class="st0" width="640" height="640"/>
<g>
	<path class="st1" d="M486.2,289c-8.1-8.7-18.9-14.5-30.6-16.4c-2.4-44.4-40.3-78.5-84.7-76.1c-25.8,1.4-49.3,15-63.3,36.7
		c-3-0.7-6.1-1-9.2-1c-23.1,0-42.1,18.1-43.3,41.1c-28.8,7-46.5,35.9-39.5,64.7c5.8,24.1,27.4,41,52.1,41h179.1
		c29.6,0,53.6-24,53.6-53.6C500.5,311.9,495.4,298.9,486.2,289z"/>
	<path class="st2" d="M363.2,379.3H184.1c-24.1,0-43.6-19.6-43.6-43.7c0-21.4,15.6-39.7,36.8-43c2.5-0.4,4.3-2.6,4.2-5.2v-1.6
		c0-18.5,15.1-33.4,33.6-33.4c3.3,0,6.6,0.5,9.8,1.5c2.2,0.7,4.6-0.2,5.8-2.2c19.6-33.7,62.7-45.1,96.4-25.6
		c21.7,12.6,35.1,35.8,35.1,61v0.2c0,2.6,2,4.8,4.6,5c24,1.9,41.9,22.9,39.9,46.9C404.9,361.9,386,379.4,363.2,379.3z"/>
	<g>
		<path class="st3" d="M252.3,417.7c0-6.6,12-27.1,12-27.1s12,20.4,12,27.1c0,6.6-5.4,12-12,12C257.6,429.7,252.3,424.3,252.3,417.7
			L252.3,417.7z"/>
		<path class="st3" d="M307.7,431.5c0-6.6,12-27.1,12-27.1s12,20.4,12,27.1c0,6.6-5.4,12-12,12S307.7,438.1,307.7,431.5L307.7,431.5
			z"/>
		<path class="st3" d="M418.7,431.5c0-6.6,12-27.1,12-27.1s12,20.4,12,27.1c0,6.6-5.4,12-12,12S418.7,438.1,418.7,431.5L418.7,431.5
			z"/>
		<path class="st3" d="M196.7,431.5c0-6.6,12-27.1,12-27.1s12,20.4,12,27.1c0,6.6-5.4,12-12,12S196.7,438.1,196.7,431.5L196.7,431.5
			z"/>
		<path class="st3" d="M363.7,417.5c0-6.6,12-27.1,12-27.1s12,20.4,12,27.1c0,6.6-5.4,12-12,12S363.7,424.1,363.7,417.5z"/>
	</g>
</g>
</svg>
