<?xml version="1.0" encoding="utf-8"?>
<!-- Generator: Adobe Illustrator 26.0.3, SVG Export Plug-In . SVG Version: 6.00 Build 0)  -->
<svg version="1.1" id="Layer_1" xmlns="http://www.w3.org/2000/svg" xmlns:xlink="http://www.w3.org/1999/xlink" x="0px" y="0px"
	 viewBox="0 0 640 640" style="enable-background:new 0 0 640 640;" xml:space="preserve">
<style type="text/css">
	.st0{fill:#19193D;}
	.st1{fill:#FFFFFF;}
	.st2{fill:#B2B2B2;}
	.st3{fill:#E0F9FC;}
	.st4{fill:#CCCCCC;}
</style>
<rect x="0.5" y="0.4" class="st0" width="640" height="640"/>
<g>
	<g>
		<g>
			<path class="st1" d="M242.6,458.6l2.5,0l-1.8-1.8c-0.3-0.3-0.3-0.8,0-1.2c0.3-0.3,0.8-0.3,1.2,0l2.9,3l3.7,0l-4.6-5.1
				c-0.3-0.3-0.3-0.9,0.1-1.2c0.3-0.3,0.9-0.3,1.2,0.1l5.6,6.2l1.1,0l-2.6-4.6c-0.6-1.1,0.2-2.5,1.5-2.5h0.9h4.3l-0.5-0.9l-8.2-1.6
				c-0.4-0.1-0.7-0.5-0.6-1c0.1-0.4,0.5-0.7,1-0.6l6.7,1.3l-1.9-3.1l-4-1c-0.4-0.1-0.7-0.5-0.6-1c0.1-0.4,0.5-0.7,1-0.6l2.4,0.6
				l-1.3-2.1c-0.2-0.4-0.1-0.9,0.3-1.1c0.4-0.2,0.9-0.1,1.1,0.3l1.3,2.1l0.6-2.4c0.1-0.4,0.6-0.7,1-0.6c0.4,0.1,0.7,0.6,0.6,1l-1,4
				l1.9,3.1l2-6.6c0.1-0.4,0.6-0.7,1-0.6c0.4,0.1,0.7,0.6,0.5,1l-2.4,8l0.5,0.9l2.6-4.5c0.6-1.1,2.3-1.1,2.9,0l2.6,4.5l0.6-0.9
				l-2.4-8c-0.1-0.4,0.1-0.9,0.6-1c0.4-0.1,0.9,0.1,1,0.6l2,6.6l1.9-3.1l-1-4c-0.1-0.4,0.2-0.9,0.6-1c0.4-0.1,0.9,0.2,1,0.6l0.6,2.4
				l1.3-2.1c0.2-0.4,0.7-0.5,1.1-0.3c0.4,0.2,0.5,0.7,0.3,1.1l-1.3,2.1l2.4-0.6c0.4-0.1,0.9,0.2,1,0.6c0.1,0.4-0.2,0.9-0.6,1l-4,1
				l-1.9,3.2l6.7-1.3c0.4-0.1,0.9,0.2,1,0.6c0.1,0.4-0.2,0.9-0.6,1l-8.2,1.6l-0.5,0.9h5.1c1.3,0,2.1,1.4,1.5,2.5l-2.6,4.6l1.1,0
				l5.6-6.2c0.3-0.3,0.8-0.4,1.2-0.1c0.3,0.3,0.4,0.8,0.1,1.2l-4.6,5.1l3.7,0l2.9-3c0.3-0.3,0.8-0.3,1.2,0c0.3,0.3,0.3,0.8,0,1.2
				l-1.8,1.8l2.5,0c0.5,0,0.8,0.4,0.8,0.8c0,0.5-0.4,0.8-0.8,0.8l-2.5,0l1.8,1.8c0.3,0.3,0.3,0.8,0,1.2c-0.2,0.2-0.4,0.2-0.6,0.2
				c-0.2,0-0.4-0.1-0.6-0.2l-2.9-2.9l-3.7,0l4.7,5.1c0.3,0.3,0.3,0.9,0,1.2c-0.2,0.1-0.4,0.2-0.6,0.2c-0.2,0-0.4-0.1-0.6-0.3
				l-5.7-6.1l-1,0l2.5,4.4c0,0,0,0,0,0.1c0.6,1.1-0.2,2.5-1.5,2.5h-4.9l0.5,0.7l8.2,1.4c0.4,0.1,0.7,0.5,0.7,0.9
				c-0.1,0.4-0.4,0.7-0.8,0.7c0,0-0.1,0-0.1,0l-6.8-1.2l2,3.1l4,0.9c0.4,0.1,0.7,0.5,0.6,1c-0.1,0.4-0.4,0.6-0.8,0.6
				c-0.1,0-0.1,0-0.2,0l-2.5-0.5l1.3,2.1c0.2,0.4,0.1,0.9-0.3,1.1c-0.1,0.1-0.3,0.1-0.4,0.1c-0.3,0-0.5-0.1-0.7-0.4l-1.3-2.1
				l-0.6,2.4c-0.1,0.4-0.4,0.6-0.8,0.6c-0.1,0-0.1,0-0.2,0c-0.4-0.1-0.7-0.5-0.6-1l0.9-4l-2-3.1l-1.8,6.6c-0.1,0.4-0.4,0.6-0.8,0.6
				c-0.1,0-0.1,0-0.2,0c-0.4-0.1-0.7-0.6-0.6-1l2.2-8.1l-0.7-1l-2.7,4.7c-0.6,1.1-2.3,1.1-2.9,0l-2.7-4.7l-0.7,1l2.2,8.1
				c0.1,0.4-0.1,0.9-0.6,1c-0.1,0-0.1,0-0.2,0c-0.4,0-0.7-0.2-0.8-0.6l-1.8-6.6l-2,3.1l0.9,4c0.1,0.4-0.2,0.9-0.6,1
				c-0.1,0-0.1,0-0.2,0c-0.4,0-0.7-0.3-0.8-0.6l-0.6-2.4l-1.3,2.1c-0.2,0.2-0.4,0.4-0.7,0.4c-0.2,0-0.3,0-0.4-0.1
				c-0.4-0.2-0.5-0.8-0.3-1.1l1.3-2.1l-2.5,0.5c-0.1,0-0.1,0-0.2,0c-0.4,0-0.7-0.3-0.8-0.6c-0.1-0.4,0.2-0.9,0.6-1l4-0.9l2-3.1
				l-6.8,1.2c0,0-0.1,0-0.1,0c-0.4,0-0.7-0.3-0.8-0.7c-0.1-0.4,0.2-0.9,0.7-0.9l8.2-1.4l0.5-0.7h-4.9c-1.3,0-2.1-1.4-1.5-2.5
				l2.5-4.4l-1,0l-5.7,6.1c-0.2,0.2-0.4,0.3-0.6,0.3c-0.2,0-0.4-0.1-0.6-0.2c-0.3-0.3-0.4-0.8,0-1.2l4.7-5.1l-3.7,0l-2.9,2.9
				c-0.2,0.2-0.4,0.2-0.6,0.2c-0.2,0-0.4-0.1-0.6-0.2c-0.3-0.3-0.3-0.8,0-1.2l1.8-1.8l-2.5,0c-0.5,0-0.8-0.4-0.8-0.8
				C241.8,459,242.2,458.6,242.6,458.6z"/>
		</g>
		<g>
			<path class="st1" d="M354.6,458.6l2.5,0l-1.8-1.8c-0.3-0.3-0.3-0.8,0-1.2c0.3-0.3,0.8-0.3,1.2,0l2.9,3l3.7,0l-4.6-5.1
				c-0.3-0.3-0.3-0.9,0.1-1.2c0.3-0.3,0.9-0.3,1.2,0.1l5.6,6.2l1.1,0l-2.6-4.6c-0.6-1.1,0.2-2.5,1.5-2.5h0.9h4.3l-0.5-0.9l-8.2-1.6
				c-0.4-0.1-0.7-0.5-0.6-1c0.1-0.4,0.5-0.7,1-0.6l6.7,1.3l-1.9-3.1l-4-1c-0.4-0.1-0.7-0.5-0.6-1c0.1-0.4,0.5-0.7,1-0.6l2.4,0.6
				l-1.3-2.1c-0.2-0.4-0.1-0.9,0.3-1.1c0.4-0.2,0.9-0.1,1.1,0.3l1.3,2.1l0.6-2.4c0.1-0.4,0.6-0.7,1-0.6c0.4,0.1,0.7,0.6,0.6,1l-1,4
				l1.9,3.1l2-6.6c0.1-0.4,0.6-0.7,1-0.6c0.4,0.1,0.7,0.6,0.5,1l-2.4,8l0.5,0.9l2.6-4.5c0.6-1.1,2.3-1.1,2.9,0l2.6,4.5l0.6-0.9
				l-2.4-8c-0.1-0.4,0.1-0.9,0.6-1c0.4-0.1,0.9,0.1,1,0.6l2,6.6l1.9-3.1l-1-4c-0.1-0.4,0.2-0.9,0.6-1c0.4-0.1,0.9,0.2,1,0.6l0.6,2.4
				l1.3-2.1c0.2-0.4,0.7-0.5,1.1-0.3c0.4,0.2,0.5,0.7,0.3,1.1l-1.3,2.1l2.4-0.6c0.4-0.1,0.9,0.2,1,0.6c0.1,0.4-0.2,0.9-0.6,1l-4,1
				l-1.9,3.2l6.7-1.3c0.4-0.1,0.9,0.2,1,0.6c0.1,0.4-0.2,0.9-0.6,1l-8.2,1.6l-0.5,0.9h5.1c1.3,0,2.1,1.4,1.5,2.5l-2.6,4.6l1.1,0
				l5.6-6.2c0.3-0.3,0.8-0.4,1.2-0.1c0.3,0.3,0.4,0.8,0.1,1.2l-4.6,5.1l3.7,0l2.9-3c0.3-0.3,0.8-0.3,1.2,0c0.3,0.3,0.3,0.8,0,1.2
				l-1.8,1.8l2.5,0c0.5,0,0.8,0.4,0.8,0.8c0,0.5-0.4,0.8-0.8,0.8l-2.5,0l1.8,1.8c0.3,0.3,0.3,0.8,0,1.2c-0.2,0.2-0.4,0.2-0.6,0.2
				c-0.2,0-0.4-0.1-0.6-0.2l-2.9-2.9l-3.7,0l4.7,5.1c0.3,0.3,0.3,0.9,0,1.2c-0.2,0.1-0.4,0.2-0.6,0.2c-0.2,0-0.4-0.1-0.6-0.3
				l-5.7-6.1l-1,0l2.5,4.4c0,0,0,0,0,0.1c0.6,1.1-0.2,2.5-1.5,2.5h-4.9l0.5,0.7l8.2,1.4c0.4,0.1,0.7,0.5,0.7,0.9
				c-0.1,0.4-0.4,0.7-0.8,0.7c0,0-0.1,0-0.1,0l-6.8-1.2l2,3.1l4,0.9c0.4,0.1,0.7,0.5,0.6,1c-0.1,0.4-0.4,0.6-0.8,0.6
				c-0.1,0-0.1,0-0.2,0l-2.5-0.5l1.3,2.1c0.2,0.4,0.1,0.9-0.3,1.1c-0.1,0.1-0.3,0.1-0.4,0.1c-0.3,0-0.5-0.1-0.7-0.4l-1.3-2.1
				l-0.6,2.4c-0.1,0.4-0.4,0.6-0.8,0.6c-0.1,0-0.1,0-0.2,0c-0.4-0.1-0.7-0.5-0.6-1l0.9-4l-2-3.1l-1.8,6.6c-0.1,0.4-0.4,0.6-0.8,0.6
				c-0.1,0-0.1,0-0.2,0c-0.4-0.1-0.7-0.6-0.6-1l2.2-8.1l-0.7-1l-2.7,4.7c-0.6,1.1-2.3,1.1-2.9,0l-2.7-4.7l-0.7,1l2.2,8.1
				c0.1,0.4-0.1,0.9-0.6,1c-0.1,0-0.1,0-0.2,0c-0.4,0-0.7-0.2-0.8-0.6l-1.8-6.6l-2,3.1l0.9,4c0.1,0.4-0.2,0.9-0.6,1
				c-0.1,0-0.1,0-0.2,0c-0.4,0-0.7-0.3-0.8-0.6l-0.6-2.4l-1.3,2.1c-0.2,0.2-0.4,0.4-0.7,0.4c-0.2,0-0.3,0-0.4-0.1
				c-0.4-0.2-0.5-0.8-0.3-1.1l1.3-2.1l-2.5,0.5c-0.1,0-0.1,0-0.2,0c-0.4,0-0.7-0.3-0.8-0.6c-0.1-0.4,0.2-0.9,0.6-1l4-0.9l2-3.1
				l-6.8,1.2c0,0-0.1,0-0.1,0c-0.4,0-0.7-0.3-0.8-0.7c-0.1-0.4,0.2-0.9,0.7-0.9l8.2-1.4l0.5-0.7h-4.9c-1.3,0-2.1-1.4-1.5-2.5
				l2.5-4.4l-1,0l-5.7,6.1c-0.2,0.2-0.4,0.3-0.6,0.3c-0.2,0-0.4-0.1-0.6-0.2c-0.3-0.3-0.4-0.8,0-1.2l4.7-5.1l-3.7,0l-2.9,2.9
				c-0.2,0.2-0.4,0.2-0.6,0.2s-0.4-0.1-0.6-0.2c-0.3-0.3-0.3-0.8,0-1.2l1.8-1.8l-2.5,0c-0.5,0-0.8-0.4-0.8-0.8
				C353.8,459,354.2,458.6,354.6,458.6z"/>
		</g>
		<g>
			<path class="st1" d="M298.6,472.6l2.5,0l-1.8-1.8c-0.3-0.3-0.3-0.8,0-1.2c0.3-0.3,0.8-0.3,1.2,0l2.9,3l3.7,0l-4.6-5.1
				c-0.3-0.3-0.3-0.9,0.1-1.2c0.3-0.3,0.9-0.3,1.2,0.1l5.6,6.2l1.1,0l-2.6-4.6c-0.6-1.1,0.2-2.5,1.5-2.5h0.9h4.3l-0.5-0.9l-8.2-1.6
				c-0.4-0.1-0.7-0.5-0.6-1c0.1-0.4,0.5-0.7,1-0.6l6.7,1.3l-1.9-3.1l-4-1c-0.4-0.1-0.7-0.5-0.6-1c0.1-0.4,0.5-0.7,1-0.6l2.4,0.6
				l-1.3-2.1c-0.2-0.4-0.1-0.9,0.3-1.1c0.4-0.2,0.9-0.1,1.1,0.3l1.3,2.1l0.6-2.4c0.1-0.4,0.6-0.7,1-0.6c0.4,0.1,0.7,0.6,0.6,1l-1,4
				l1.9,3.1l2-6.6c0.1-0.4,0.6-0.7,1-0.6c0.4,0.1,0.7,0.6,0.5,1l-2.4,8l0.5,0.9l2.6-4.5c0.6-1.1,2.3-1.1,2.9,0l2.6,4.5l0.6-0.9
				l-2.4-8c-0.1-0.4,0.1-0.9,0.6-1c0.4-0.1,0.9,0.1,1,0.6l2,6.6l1.9-3.1l-1-4c-0.1-0.4,0.2-0.9,0.6-1c0.4-0.1,0.9,0.2,1,0.6l0.6,2.4
				l1.3-2.1c0.2-0.4,0.7-0.5,1.1-0.3c0.4,0.2,0.5,0.7,0.3,1.1l-1.3,2.1l2.4-0.6c0.4-0.1,0.9,0.2,1,0.6c0.1,0.4-0.2,0.9-0.6,1l-4,1
				l-1.9,3.2l6.7-1.3c0.4-0.1,0.9,0.2,1,0.6c0.1,0.4-0.2,0.9-0.6,1l-8.2,1.6l-0.5,0.9h5.1c1.3,0,2.1,1.4,1.5,2.5l-2.6,4.6l1.1,0
				l5.6-6.2c0.3-0.3,0.8-0.4,1.2-0.1c0.3,0.3,0.4,0.8,0.1,1.2l-4.6,5.1l3.7,0l2.9-3c0.3-0.3,0.8-0.3,1.2,0c0.3,0.3,0.3,0.8,0,1.2
				l-1.8,1.8l2.5,0c0.5,0,0.8,0.4,0.8,0.8c0,0.5-0.4,0.8-0.8,0.8l-2.5,0l1.8,1.8c0.3,0.3,0.3,0.8,0,1.2c-0.2,0.2-0.4,0.2-0.6,0.2
				c-0.2,0-0.4-0.1-0.6-0.2l-2.9-2.9l-3.7,0l4.7,5.1c0.3,0.3,0.3,0.9,0,1.2c-0.2,0.1-0.4,0.2-0.6,0.2c-0.2,0-0.4-0.1-0.6-0.3
				l-5.7-6.1l-1,0l2.5,4.4c0,0,0,0,0,0.1c0.6,1.1-0.2,2.5-1.5,2.5h-4.9l0.5,0.7l8.2,1.4c0.4,0.1,0.7,0.5,0.7,0.9
				c-0.1,0.4-0.4,0.7-0.8,0.7c0,0-0.1,0-0.1,0l-6.8-1.2l2,3.1l4,0.9c0.4,0.1,0.7,0.5,0.6,1c-0.1,0.4-0.4,0.6-0.8,0.6
				c-0.1,0-0.1,0-0.2,0l-2.5-0.5l1.3,2.1c0.2,0.4,0.1,0.9-0.3,1.1c-0.1,0.1-0.3,0.1-0.4,0.1c-0.3,0-0.5-0.1-0.7-0.4l-1.3-2.1
				l-0.6,2.4c-0.1,0.4-0.4,0.6-0.8,0.6c-0.1,0-0.1,0-0.2,0c-0.4-0.1-0.7-0.5-0.6-1l0.9-4l-2-3.1l-1.8,6.6c-0.1,0.4-0.4,0.6-0.8,0.6
				c-0.1,0-0.1,0-0.2,0c-0.4-0.1-0.7-0.6-0.6-1l2.2-8.1l-0.7-1l-2.7,4.7c-0.6,1.1-2.3,1.1-2.9,0l-2.7-4.7l-0.7,1l2.2,8.1
				c0.1,0.4-0.1,0.9-0.6,1c-0.1,0-0.1,0-0.2,0c-0.4,0-0.7-0.2-0.8-0.6l-1.8-6.6l-2,3.1l0.9,4c0.1,0.4-0.2,0.9-0.6,1
				c-0.1,0-0.1,0-0.2,0c-0.4,0-0.7-0.3-0.8-0.6l-0.6-2.4l-1.3,2.1c-0.2,0.2-0.4,0.4-0.7,0.4c-0.2,0-0.3,0-0.4-0.1
				c-0.4-0.2-0.5-0.8-0.3-1.1l1.3-2.1l-2.5,0.5c-0.1,0-0.1,0-0.2,0c-0.4,0-0.7-0.3-0.8-0.6c-0.1-0.4,0.2-0.9,0.6-1l4-0.9l2-3.1
				l-6.8,1.2c0,0-0.1,0-0.1,0c-0.4,0-0.7-0.3-0.8-0.7c-0.1-0.4,0.2-0.9,0.7-0.9l8.2-1.4l0.5-0.7h-4.9c-1.3,0-2.1-1.4-1.5-2.5
				l2.5-4.4l-1,0l-5.7,6.1c-0.2,0.2-0.4,0.3-0.6,0.3c-0.2,0-0.4-0.1-0.6-0.2c-0.3-0.3-0.4-0.8,0-1.2l4.7-5.1l-3.7,0l-2.9,2.9
				c-0.2,0.2-0.4,0.2-0.6,0.2s-0.4-0.1-0.6-0.2c-0.3-0.3-0.3-0.8,0-1.2l1.8-1.8l-2.5,0c-0.5,0-0.8-0.4-0.8-0.8
				C297.8,473,298.2,472.6,298.6,472.6z"/>
		</g>
	</g>
</g>
<g>
	<path class="st2" d="M486.1,337.7c-8.1-8.7-18.8-14.5-30.6-16.4c-1-20.2-9.7-39.3-24.3-53.4c-15-14.6-35.1-22.8-56.1-22.8
		c-27.3,0.1-52.7,14-67.6,36.8c-3-0.7-6.1-1-9.2-1c-23.1,0.1-42.1,18.1-43.3,41.1c-10.9,2.6-20.7,8.6-28,17.1
		c-8.4,9.7-13,22.1-13,35c0,29.6,24,53.5,53.6,53.6h179.1c29.6,0,53.5-24,53.6-53.6C500.4,360.6,495.3,347.6,486.1,337.7z"/>
	<path class="st3" d="M258.5,282.1c-44.4,0-80.4-36-80.4-80.5c0-14.2,3.8-28.1,10.9-40.3c-41.1,16.9-60.6,63.9-43.7,105
		s63.9,60.6,105,43.7c16.4-6.7,30-18.7,38.9-34C279.4,280.1,269,282.1,258.5,282.1z"/>
	<path class="st4" d="M363.1,428H184c-24.1,0-43.6-19.5-43.6-43.6c-0.1-21.5,15.5-39.8,36.8-43.1c2.5-0.4,4.4-2.7,4.2-5.2
		c0-0.5,0-1,0-1.6c0-18.4,15-33.4,33.4-33.4c3.4,0,6.8,0.5,10,1.5c2.2,0.7,4.6-0.2,5.8-2.2c12.7-21.7,35.9-35,61-35.1
		c38.9,0,70.5,31.6,70.5,70.5v0.2c0,2.6,2,4.8,4.6,5c22.6,1.9,40.1,20.8,40.2,43.5C406.8,408.5,387.2,428,363.1,428z"/>
</g>
</svg>
