<?xml version="1.0" encoding="utf-8"?>
<!-- Generator: Adobe Illustrator 26.0.3, SVG Export Plug-In . SVG Version: 6.00 Build 0)  -->
<svg version="1.1" id="Layer_1" xmlns="http://www.w3.org/2000/svg" xmlns:xlink="http://www.w3.org/1999/xlink" x="0px" y="0px"
	 viewBox="0 0 640 640" style="enable-background:new 0 0 640 640;" xml:space="preserve">
<style type="text/css">
	.st0{fill:#19193D;}
	.st1{fill:#B2B2B2;}
	.st2{fill:#E0F9FC;}
	.st3{fill:#CCCCCC;}
</style>
<rect x="0.46" y="0.37" class="st0" width="640" height="640"/>
<g>
	<path class="st1" d="M485.68,369.67c-8.09-8.7-18.84-14.47-30.56-16.41c-1.04-20.23-9.72-39.3-24.28-53.38
		c-14.98-14.65-35.11-22.83-56.06-22.8c-27.28,0.12-52.68,13.95-67.58,36.8c-3.01-0.66-6.09-0.99-9.17-1
		c-23.06,0.07-42.05,18.12-43.3,41.15c-10.89,2.65-20.67,8.63-28,17.11c-8.39,9.73-13,22.15-13,35
		c0.04,29.58,24.02,53.55,53.6,53.58h179.09c29.58-0.04,53.54-24,53.58-53.58C500.02,392.61,494.9,379.57,485.68,369.67z"/>
	<path class="st2" d="M258.08,314.09c-44.42-0.02-80.42-36.04-80.4-80.46c0.01-14.16,3.75-28.07,10.85-40.32
		c-41.07,16.93-60.64,63.94-43.71,105.01s63.94,60.64,105.01,43.71c16.35-6.74,30.02-18.68,38.9-33.97
		C279.01,312.06,268.59,314.11,258.08,314.09z"/>
	<path class="st3" d="M362.73,460H183.64c-24.09-0.03-43.61-19.55-43.64-43.64c-0.11-21.49,15.54-39.82,36.78-43.09
		c2.53-0.41,4.35-2.66,4.2-5.22c0-0.45,0-1,0-1.58c0.02-18.44,14.96-33.38,33.4-33.4c3.39-0.01,6.76,0.51,10,1.52
		c2.22,0.71,4.63-0.22,5.79-2.24c12.67-21.69,35.88-35.05,61-35.1c38.92,0.04,70.46,31.58,70.5,70.5v0.16
		c-0.01,2.61,1.99,4.79,4.59,5c22.65,1.87,40.1,20.76,40.18,43.49C406.4,440.5,386.83,460.02,362.73,460z"/>
</g>
</svg>
