<?xml version="1.0" encoding="utf-8"?>
<!-- Generator: Adobe Illustrator 26.0.3, SVG Export Plug-In . SVG Version: 6.00 Build 0)  -->
<svg version="1.1" id="Layer_1" xmlns="http://www.w3.org/2000/svg" xmlns:xlink="http://www.w3.org/1999/xlink" x="0px" y="0px"
	 viewBox="0 0 640 640" style="enable-background:new 0 0 640 640;" xml:space="preserve">
<style type="text/css">
	.st0{fill:#4257E2;}
	.st1{fill:url(#SVGID_1_);}
	.st2{fill:url(#SVGID_00000138572945937448330010000009944827533970213761_);}
	.st3{fill:#FFFF00;}
	.st4{fill:#E6E6E6;}
	.st5{fill:#F2F2F2;}
</style>
<rect x="0.46" y="0.37" class="st0" width="640" height="640"/>
<g>
	
		<linearGradient id="SVGID_1_" gradientUnits="userSpaceOnUse" x1="-679.5126" y1="1325.173" x2="-678.7026" y2="1325.173" gradientTransform="matrix(0 -589.41 589.41 0 -780830.1875 -399991.8438)">
		<stop  offset="0" style="stop-color:#FFFF00;stop-opacity:0"/>
		<stop  offset="1" style="stop-color:#FFFF00"/>
	</linearGradient>
	<path class="st1" d="M240,366.69c-47.88,0-86.69-38.81-86.69-86.69s38.81-86.69,86.69-86.69s86.69,38.81,86.69,86.69
		S287.88,366.69,240,366.69 M240,180c-55.23,0-100,44.77-100,100s44.77,100,100,100s100-44.77,100-100S295.23,180,240,180"/>
	
		<linearGradient id="SVGID_00000168076063323696807620000014813173383436026038_" gradientUnits="userSpaceOnUse" x1="-679.5126" y1="1325.173" x2="-678.7026" y2="1325.173" gradientTransform="matrix(0 -589.41 589.41 0 -780830.1875 -399991.8438)">
		<stop  offset="0" style="stop-color:#FFFF00;stop-opacity:0.5"/>
		<stop  offset="0.99" style="stop-color:#FFFF00"/>
	</linearGradient>
	<path style="fill:url(#SVGID_00000168076063323696807620000014813173383436026038_);" d="M240,193.31
		c-47.88,0-86.69,38.81-86.69,86.69s38.81,86.69,86.69,86.69s86.69-38.81,86.69-86.69S287.88,193.31,240,193.31"/>
	<circle class="st3" cx="240" cy="280" r="71.36"/>
	<path class="st4" d="M485.68,369.67c-8.09-8.7-18.84-14.47-30.56-16.41c-1.04-20.23-9.72-39.3-24.28-53.38
		c-14.98-14.65-35.11-22.83-56.06-22.8c-27.28,0.12-52.68,13.95-67.58,36.8c-3.01-0.66-6.09-0.99-9.17-1
		c-23.06,0.07-42.05,18.12-43.3,41.15c-10.89,2.65-20.67,8.63-28,17.11c-8.39,9.73-13,22.15-13,35
		c0.04,29.58,24.02,53.55,53.6,53.58h179.09c29.58-0.04,53.54-24,53.58-53.58C500.02,392.61,494.9,379.57,485.68,369.67z"/>
	<path class="st5" d="M362.73,460H183.64c-24.09-0.03-43.61-19.55-43.64-43.64c-0.11-21.49,15.54-39.82,36.78-43.09
		c2.53-0.41,4.35-2.66,4.2-5.22c0-0.45,0-1,0-1.58c0.02-18.44,14.96-33.38,33.4-33.4c3.39-0.01,6.76,0.51,10,1.52
		c2.22,0.71,4.63-0.22,5.79-2.24c12.67-21.69,35.88-35.05,61-35.1c38.92,0.04,70.46,31.58,70.5,70.5v0.16
		c-0.01,2.61,1.99,4.79,4.59,5c22.65,1.87,40.1,20.76,40.18,43.49C406.4,440.5,386.83,460.02,362.73,460z"/>
</g>
</svg>
