<?xml version="1.0" encoding="utf-8"?>
<!-- Generator: Adobe Illustrator 26.0.3, SVG Export Plug-In . SVG Version: 6.00 Build 0)  -->
<svg version="1.1" id="Layer_1" xmlns="http://www.w3.org/2000/svg" xmlns:xlink="http://www.w3.org/1999/xlink" x="0px" y="0px"
	 viewBox="0 0 640 640" style="enable-background:new 0 0 640 640;" xml:space="preserve">
<style type="text/css">
	.st0{fill:#19193D;}
	.st1{fill:#B2B2B2;}
	.st2{fill:#E0F9FC;}
	.st3{fill:#CCCCCC;}
	.st4{fill:#9AC6CE;}
</style>
<rect x="0.5" y="0.4" class="st0" width="640" height="640"/>
<g>
	<path class="st1" d="M487,337.1c-8.1-8.7-18.8-14.5-30.6-16.4c-1-20.2-9.7-39.3-24.3-53.4c-15-14.6-35.1-22.8-56.1-22.8
		c-27.3,0.1-52.7,14-67.6,36.8c-3-0.7-6.1-1-9.2-1c-23.1,0.1-42.1,18.1-43.3,41.1c-10.9,2.6-20.7,8.6-28,17.1
		c-8.4,9.7-13,22.1-13,35c0,29.6,24,53.5,53.6,53.6h179.1c29.6,0,53.5-24,53.6-53.6C501.3,360,496.2,347,487,337.1z"/>
	<path class="st2" d="M259.4,281.5c-44.4,0-80.4-36-80.4-80.5c0-14.2,3.8-28.1,10.9-40.3c-41.1,16.9-60.6,63.9-43.7,105
		s63.9,60.6,105,43.7c16.4-6.7,30-18.7,38.9-34C280.3,279.5,269.9,281.5,259.4,281.5z"/>
	<path class="st3" d="M364,427.4H184.9c-24.1,0-43.6-19.5-43.6-43.6c-0.1-21.5,15.5-39.8,36.8-43.1c2.5-0.4,4.4-2.7,4.2-5.2
		c0-0.5,0-1,0-1.6c0-18.4,15-33.4,33.4-33.4c3.4,0,6.8,0.5,10,1.5c2.2,0.7,4.6-0.2,5.8-2.2c12.7-21.7,35.9-35,61-35.1
		c38.9,0,70.5,31.6,70.5,70.5v0.2c0,2.6,2,4.8,4.6,5c22.6,1.9,40.1,20.8,40.2,43.5C407.7,407.9,388.1,427.4,364,427.4z"/>
</g>
<g>
	<path class="st4" d="M252.9,465.6c0-6.7,12-27.1,12-27.1s12,20.4,12,27.1c0,6.6-5.4,12-12,12C258.3,477.6,252.9,472.2,252.9,465.6
		L252.9,465.6z"/>
	<path class="st4" d="M308.4,479.4c0-6.6,12-27.1,12-27.1s12,20.4,12,27.1c0,6.6-5.4,12-12,12S308.4,486,308.4,479.4L308.4,479.4z"
		/>
	<path class="st4" d="M364.4,465.4c0-6.6,12-27.1,12-27.1s12,20.4,12,27.1c0,6.6-5.4,12-12,12S364.4,472,364.4,465.4z"/>
</g>
</svg>
