<?xml version="1.0" encoding="utf-8"?>
<!-- Generator: Adobe Illustrator 26.0.3, SVG Export Plug-In . SVG Version: 6.00 Build 0)  -->
<svg version="1.1" id="Layer_1" xmlns="http://www.w3.org/2000/svg" xmlns:xlink="http://www.w3.org/1999/xlink" x="0px" y="0px"
	 viewBox="0 0 640 640" style="enable-background:new 0 0 640 640;" xml:space="preserve">
<style type="text/css">
	.st0{fill:#19193D;}
	.st1{fill:#FCE95E;}
	.st2{fill:#B2B2B2;}
	.st3{fill:#CCCCCC;}
</style>
<rect x="0.5" y="0.4" class="st0" width="640" height="640"/>
<g>
	<g>
		<g>
			<g>
				<g>
					<polygon class="st1" points="368,379 351,379 336.4,418 362.6,418 355.6,477 384.6,398.3 360.7,398.3 					"/>
				</g>
			</g>
		</g>
	</g>
	<g>
		<g>
			<g>
				<g>
					<polygon class="st1" points="287,379 270,379 255.4,418 281.6,418 274.6,477 303.6,398.3 279.7,398.3 					"/>
				</g>
			</g>
		</g>
	</g>
</g>
<g>
	<path class="st2" d="M485.7,289.1c-8.1-8.7-18.9-14.5-30.6-16.4c-2.3-42.7-37.6-76.2-80.4-76.2c-27.3,0.1-52.7,14-67.6,36.8
		c-3-0.7-6.1-1-9.2-1c-23.1,0-42.1,18.1-43.3,41.1c-28.8,7-46.5,35.9-39.5,64.7c5.8,24.1,27.4,41,52.1,41h179.1
		c29.6,0,53.6-24,53.6-53.6C500,312,494.9,299,485.7,289.1z"/>
	<path class="st3" d="M362.7,379.4H183.6c-24.1,0-43.6-19.6-43.6-43.7c0-21.4,15.6-39.7,36.8-43c2.5-0.4,4.3-2.6,4.2-5.2v-1.6
		c0-18.5,15.1-33.4,33.6-33.4c3.3,0,6.6,0.5,9.8,1.5c2.2,0.7,4.6-0.2,5.8-2.2c19.6-33.7,62.7-45.1,96.4-25.6
		c21.7,12.6,35.1,35.8,35.1,61v0.2c0,2.6,2,4.8,4.6,5c24,1.9,41.9,22.9,39.9,46.9C404.5,362,385.5,379.5,362.7,379.4L362.7,379.4z"
		/>
</g>
</svg>
